<?xml version="1.0" encoding="UTF-8" standalone="no"?>
<svg
   xmlns:dc="http://purl.org/dc/elements/1.1/"
   xmlns:cc="http://creativecommons.org/ns#"
   xmlns:rdf="http://www.w3.org/1999/02/22-rdf-syntax-ns#"
   xmlns:svg="http://www.w3.org/2000/svg"
   xmlns="http://www.w3.org/2000/svg"
   xmlns:sodipodi="http://sodipodi.sourceforge.net/DTD/sodipodi-0.dtd"
   xmlns:inkscape="http://www.inkscape.org/namespaces/inkscape"
   style="overflow:hidden"
   height="91"
   version="1.1"
   width="241"
   id="svg2"
   inkscape:version="0.47 r22583"
   sodipodi:docname="SIO.svg">
  <metadata
     id="metadata28">
    <rdf:RDF>
      <cc:Work
         rdf:about="">
        <dc:format>image/svg+xml</dc:format>
        <dc:type
           rdf:resource="http://purl.org/dc/dcmitype/StillImage" />
        <dc:title></dc:title>
      </cc:Work>
    </rdf:RDF>
  </metadata>
  <defs
     id="defs26">
    <inkscape:perspective
       sodipodi:type="inkscape:persp3d"
       inkscape:vp_x="0 : 100 : 1"
       inkscape:vp_y="0 : 1000 : 0"
       inkscape:vp_z="300 : 100 : 1"
       inkscape:persp3d-origin="150 : 66.666667 : 1"
       id="perspective30" />
  </defs>
  <sodipodi:namedview
     pagecolor="#ffffff"
     bordercolor="#666666"
     borderopacity="1"
     objecttolerance="10"
     gridtolerance="10"
     guidetolerance="10"
     inkscape:pageopacity="0"
     inkscape:pageshadow="2"
     inkscape:window-width="1680"
     inkscape:window-height="977"
     id="namedview24"
     showgrid="false"
     inkscape:zoom="4.72"
     inkscape:cx="150.5"
     inkscape:cy="44.511433"
     inkscape:window-x="0"
     inkscape:window-y="25"
     inkscape:window-maximized="1"
     inkscape:current-layer="svg2" />
  <path
     style="fill:none;stroke:#000000"
     d="m 0.5,30.5 45,30 h 45 l -45,-30 -45,0"
     id="path4" />
  <path
     style="fill:#2980b9;stroke:#2980b9"
     d="m 0.5,30.5 45,30 h 45 l -45,-30 -45,0"
     id="path8" />
  <path
     style="fill:#3498db;stroke:#3498db"
     d="m 0.5,30.5 h 90 l -30,-30 h -30 l -30,30"
     id="path6" />
  <path
     style="fill:#3498db;stroke:#3498db"
     d="m 0.5,60.5 h 90 l -30,30 h -30 l -30,-30"
     id="path10" />
  <path
     style="fill:#3498db;stroke:#3498db"
     d="m 105.5,30.5 v 60 h 30 v -60 h -30"
     id="path12" />
  <path
     style="fill:#2980b9;stroke:#2980b9"
     d="m 135.5,0.5 -30,30 h 30 v -30"
     id="path14" />
  <path
     style="fill:#2980b9;stroke:#2980b9"
     d="m 150.5,30.5 h 30 v 30 h -30 v -30"
     id="path16" />
  <path
     style="fill:#2980b9;stroke:#2980b9"
     d="m 210.5,30.5 h 30 v 30 h -30 v -30"
     id="path18" />
  <path
     style="fill:#3498db;stroke:#3498db"
     d="m 150.5,30.5 h 90 l -30,-30 h -30 l -30,30"
     id="path20" />
  <path
     style="fill:#3498db;stroke:#3498db"
     d="m 150.5,60.5 h 90 l -30,30 h -30 l -30,-30"
     id="path22" />
</svg>
