<?xml version="1.0" encoding="UTF-8" standalone="no"?>
<!-- Created with Inkscape (http://www.inkscape.org/) -->

<svg
   xmlns:dc="http://purl.org/dc/elements/1.1/"
   xmlns:cc="http://creativecommons.org/ns#"
   xmlns:rdf="http://www.w3.org/1999/02/22-rdf-syntax-ns#"
   xmlns:svg="http://www.w3.org/2000/svg"
   xmlns="http://www.w3.org/2000/svg"
   xmlns:sodipodi="http://sodipodi.sourceforge.net/DTD/sodipodi-0.dtd"
   xmlns:inkscape="http://www.inkscape.org/namespaces/inkscape"
   id="svg3085"
   version="1.1"
   inkscape:version="0.48.2 r9819"
   width="80"
   height="80"
   xml:space="preserve"
   sodipodi:docname="briefcase.eps"><metadata
     id="metadata3091"><rdf:RDF><cc:Work
         rdf:about=""><dc:format>image/svg+xml</dc:format><dc:type
           rdf:resource="http://purl.org/dc/dcmitype/StillImage" /><dc:title></dc:title></cc:Work></rdf:RDF></metadata><defs
     id="defs3089" /><sodipodi:namedview
     pagecolor="#ffffff"
     bordercolor="#666666"
     borderopacity="1"
     objecttolerance="10"
     gridtolerance="10"
     guidetolerance="10"
     inkscape:pageopacity="0"
     inkscape:pageshadow="2"
     inkscape:window-width="640"
     inkscape:window-height="480"
     id="namedview3087"
     showgrid="false"
     inkscape:zoom="2.95"
     inkscape:cx="40"
     inkscape:cy="40"
     inkscape:window-x="0"
     inkscape:window-y="0"
     inkscape:window-maximized="0"
     inkscape:current-layer="g3093" /><g
     id="g3093"
     inkscape:groupmode="layer"
     inkscape:label="ink_ext_XXXXXX"
     transform="matrix(1.25,0,0,-1.25,0,80)"><g
       id="g3095"
       transform="scale(0.1,0.1)"><path
         d="M 640,320 C 640,143.27 496.73,0 320,0 143.27,0 0,143.27 0,320 0,496.73 143.27,640 320,640 496.73,640 640,496.73 640,320"
         style="fill:#495672;fill-opacity:1;fill-rule:nonzero;stroke:none"
         id="path3097" /><path
         d="m 480,150 -320,0 c -22.094,0 -40,17.91 -40,40 l 0,200 0,-180 c 0,-22.09 17.906,-40 40,-40 l 320,0 c 22.09,0 40,17.91 40,40 l 0,-20 c 0,-22.09 -17.91,-40 -40,-40"
         style="fill:#404a5f;fill-opacity:1;fill-rule:nonzero;stroke:none"
         id="path3099" /><path
         d="m 380,520 -120,0 c -22.094,0 -40,-17.91 -40,-40 l 0,-200 c 0,-22.094 17.906,-40 40,-40 l 120,0 c 22.09,0 40,17.906 40,40 l 0,200 c 0,22.09 -17.91,40 -40,40 m 0,-40 0,-200 -120,0 0,200 120,0"
         style="fill:#e08e4c;fill-opacity:1;fill-rule:nonzero;stroke:none"
         id="path3101" /><path
         d="m 120,360 0,-150 c 0,-22.09 17.906,-40 40,-40 l 320,0 c 22.09,0 40,17.91 40,40 l 0,150 -400,0"
         style="fill:#e08e4c;fill-opacity:1;fill-rule:nonzero;stroke:none"
         id="path3103" /><path
         d="m 520,390 c 0,22.07 -17.875,39.965 -39.934,40 C 502.125,429.965 520,412.07 520,390 m -400,0 c 0,22.094 17.906,40 40,40 -22.094,0 -40,-17.91 -40,-40"
         style="fill:#404a5f;fill-opacity:1;fill-rule:nonzero;stroke:none"
         id="path3105" /><path
         d="m 520,360 -100,0 0,70 60,0 c 0.02,0 0.043,0 0.066,0 C 502.125,429.965 520,412.07 520,390 l 0,-30 m -300,0 -100,0 0,30 c 0,22.09 17.906,40 40,40 l 60,0 0,-70 m 160,24.648 C 374.117,388.051 367.285,390 360,390 l -80,0 c -7.285,0 -14.117,-1.949 -20,-5.352 l 0,45.352 120,0 0,-45.352"
         style="fill:#394051;fill-opacity:1;fill-rule:nonzero;stroke:none"
         id="path3107" /><path
         d="m 420,360 -21.262,0 c -2.703,10.508 -9.57,19.348 -18.738,24.648 l 0,45.352 40,0 0,-70 m -178.738,0 -21.262,0 0,70 40,0 0,-45.352 c -9.168,-5.3 -16.035,-14.14 -18.738,-24.648"
         style="fill:#b77744;fill-opacity:1;fill-rule:nonzero;stroke:none"
         id="path3109" /><path
         d="m 520,340 -120,0 0,10 c 0,3.453 -0.437,6.805 -1.262,10 l 121.262,0 0,-20 m -280,0 -120,0 0,20 121.262,0 C 240.438,356.805 240,353.453 240,350 l 0,-10"
         style="fill:#b77744;fill-opacity:1;fill-rule:nonzero;stroke:none"
         id="path3111" /><path
         d="m 360,280 -80,0 c -22.09,0 -40,17.91 -40,40 l 0,20 160,0 0,-20 c 0,-22.09 -17.91,-40 -40,-40"
         style="fill:#b77744;fill-opacity:1;fill-rule:nonzero;stroke:none"
         id="path3113" /><path
         d="m 380,360 -120,0 0,24.648 c 5.883,3.403 12.715,5.352 20,5.352 l 80,0 c 7.285,0 14.117,-1.949 20,-5.352 L 380,360"
         style="fill:#343945;fill-opacity:1;fill-rule:nonzero;stroke:none"
         id="path3115" /><path
         d="m 398.738,360 -18.738,0 0,24.648 c 9.168,-5.3 16.035,-14.14 18.738,-24.648 M 260,360 l -18.738,0 c 2.703,10.508 9.57,19.348 18.738,24.648 L 260,360"
         style="fill:#97633d;fill-opacity:1;fill-rule:nonzero;stroke:none"
         id="path3117" /><path
         d="m 400,340 -160,0 0,10 c 0,3.453 0.438,6.805 1.262,10 l 157.476,0 c 0.825,-3.195 1.262,-6.547 1.262,-10 l 0,-10"
         style="fill:#97633d;fill-opacity:1;fill-rule:nonzero;stroke:none"
         id="path3119" /><path
         d="m 360,410 -80,0 c -22.094,0 -40,-17.91 -40,-40 l 0,-30 c 0,-22.09 17.906,-40 40,-40 l 80,0 c 22.09,0 40,17.91 40,40 l 0,30 c 0,22.09 -17.91,40 -40,40 z m 0,-40 0,-30 -80,0 0,30 80,0"
         style="fill:#f3cc70;fill-opacity:1;fill-rule:nonzero;stroke:none"
         id="path3121" /><path
         d="m 520,410 c 0,22.094 -17.906,40 -40,40 l -320,0 c -22.094,0 -40,-17.906 -40,-40 l 0,-50 400,0 0,50"
         style="fill:#e08e4c;fill-opacity:1;fill-rule:nonzero;stroke:none"
         id="path3123" /></g></g></svg>