<?xml version="1.0" encoding="UTF-8" standalone="no"?>
<!-- Created with Inkscape (http://www.inkscape.org/) -->

<svg
   xmlns:dc="http://purl.org/dc/elements/1.1/"
   xmlns:cc="http://creativecommons.org/ns#"
   xmlns:rdf="http://www.w3.org/1999/02/22-rdf-syntax-ns#"
   xmlns:svg="http://www.w3.org/2000/svg"
   xmlns="http://www.w3.org/2000/svg"
   xmlns:sodipodi="http://sodipodi.sourceforge.net/DTD/sodipodi-0.dtd"
   xmlns:inkscape="http://www.inkscape.org/namespaces/inkscape"
   id="svg3039"
   version="1.1"
   inkscape:version="0.48.2 r9819"
   width="80"
   height="80"
   xml:space="preserve"
   sodipodi:docname="trophy.eps"><metadata
     id="metadata3045"><rdf:RDF><cc:Work
         rdf:about=""><dc:format>image/svg+xml</dc:format><dc:type
           rdf:resource="http://purl.org/dc/dcmitype/StillImage" /><dc:title></dc:title></cc:Work></rdf:RDF></metadata><defs
     id="defs3043" /><sodipodi:namedview
     pagecolor="#ffffff"
     bordercolor="#666666"
     borderopacity="1"
     objecttolerance="10"
     gridtolerance="10"
     guidetolerance="10"
     inkscape:pageopacity="0"
     inkscape:pageshadow="2"
     inkscape:window-width="1366"
     inkscape:window-height="706"
     id="namedview3041"
     showgrid="false"
     inkscape:zoom="2.95"
     inkscape:cx="40"
     inkscape:cy="40"
     inkscape:window-x="-8"
     inkscape:window-y="-8"
     inkscape:window-maximized="1"
     inkscape:current-layer="g3047" /><g
     id="g3047"
     inkscape:groupmode="layer"
     inkscape:label="ink_ext_XXXXXX"
     transform="matrix(1.25,0,0,-1.25,0,80)"><g
       id="g3049"
       transform="scale(0.1,0.1)"><path
         d="M 640,320 C 640,143.27 496.73,0 320,0 143.27,0 0,143.27 0,320 0,496.73 143.27,640 320,640 496.73,640 640,496.73 640,320"
         style="fill:#c84755;fill-opacity:1;fill-rule:nonzero;stroke:none"
         id="path3051" /><path
         d="m 460,100 -280,0 c -11.047,0 -20,8.953 -20,20 0,11.047 8.953,20 20,20 l 280,0 c 11.047,0 20,-8.953 20,-20 0,-11.047 -8.953,-20 -20,-20"
         style="fill:#a43f4a;fill-opacity:1;fill-rule:nonzero;stroke:none"
         id="path3053" /><path
         d="m 360,190 c 0,-16.57 -13.43,-30 -30,-30 l -20,0 c -16.566,0 -30,13.43 -30,30 l 0,100 c 0,16.57 13.434,30 30,30 l 20,0 c 16.57,0 30,-13.43 30,-30 l 0,-100"
         style="fill:#e08e4c;fill-opacity:1;fill-rule:nonzero;stroke:none"
         id="path3055" /><path
         d="m 410,300 c -6.934,0 -13.043,3.527 -16.629,8.887 3.84,3.539 7.617,7.48 11.285,11.836 C 406.359,320.25 408.148,320 410,320 462.766,320 514.426,386.684 519.578,440.75 519.855,437.18 520,433.398 520,429.391 520,374.094 465.613,300 410,300 m -180,0 c -55.613,0 -110,74.094 -110,129.391 0,4.007 0.145,7.789 0.422,11.359 C 125.574,386.684 177.234,320 230,320 c 1.852,0 3.641,0.25 5.344,0.723 3.668,-4.356 7.445,-8.297 11.285,-11.836 C 243.043,303.527 236.934,300 230,300 m -69.645,143.383 c -0.234,2.055 -0.355,4.062 -0.355,6.004 0,10.191 0,17.051 2.121,21.636 C 165.41,464.484 172.184,460 180,460 l 4.902,0 c 0.012,-0.102 0.024,-0.184 0.036,-0.285 -18.887,-0.934 -23.473,-4.559 -24.583,-16.332 m 319.29,0 c -1.11,11.773 -5.696,15.398 -24.582,16.332 0.011,0.101 0.023,0.183 0.035,0.285 l 4.902,0 c 7.816,0 14.59,4.484 17.879,11.023 C 480,466.438 480,459.578 480,449.387 c 0,-1.942 -0.121,-3.949 -0.355,-6.004"
         style="fill:#a43f4a;fill-opacity:1;fill-rule:nonzero;stroke:none"
         id="path3057" /><path
         d="m 410,320 c -11.047,0 -20,8.953 -20,20 0,11.047 8.953,20 20,20 31.777,0 70,54.902 70,89.387 0,27.129 0,30.613 -40,30.613 l -240,0 c -40,0 -40,-3.484 -40,-30.613 0,-34.485 38.223,-89.387 70,-89.387 11.047,0 20,-8.953 20,-20 0,-11.047 -8.953,-20 -20,-20 -55.613,0 -110,74.082 -110,129.387 0,65.215 37.844,70.613 80,70.613 l 240,0 c 42.156,0 80,-5.398 80,-70.613 C 520,394.082 465.613,320 410,320"
         style="fill:#e08e4c;fill-opacity:1;fill-rule:nonzero;stroke:none"
         id="path3059" /><path
         d="M 180.426,520 C 186.523,320.895 264.316,280 320,280 c 55.684,0 133.477,40.895 139.574,240 l -279.148,0"
         style="fill:#f3cc70;fill-opacity:1;fill-rule:nonzero;stroke:none"
         id="path3061" /><path
         d="M 437.047,137.465 C 425.082,173.238 377.266,200 320,200 262.734,200 214.918,173.238 202.953,137.465 l 234.094,0"
         style="fill:#f3cc70;fill-opacity:1;fill-rule:nonzero;stroke:none"
         id="path3063" /><path
         d="m 480,140 c 0,-11.047 -8.953,-20 -20,-20 l -280,0 c -11.047,0 -20,8.953 -20,20 0,11.047 8.953,20 20,20 l 280,0 c 11.047,0 20,-8.953 20,-20"
         style="fill:#495672;fill-opacity:1;fill-rule:nonzero;stroke:none"
         id="path3065" /><path
         d="m 360,200 0,40 c 11.047,0 20,-8.953 20,-20 0,-11.047 -8.953,-20 -20,-20 m -80,0 c -11.047,0 -20,8.953 -20,20 0,11.047 8.953,20 20,20 l 0,-40"
         style="fill:#a43f4a;fill-opacity:1;fill-rule:nonzero;stroke:none"
         id="path3067" /><path
         d="m 360,200 -80,0 0,40 80,0 0,-40"
         style="fill:#b77744;fill-opacity:1;fill-rule:nonzero;stroke:none"
         id="path3069" /><path
         d="m 380,240 c 0,-11.047 -8.953,-20 -20,-20 l -80,0 c -11.047,0 -20,8.953 -20,20 0,11.047 8.953,20 20,20 l 80,0 c 11.047,0 20,-8.953 20,-20"
         style="fill:#f3cc70;fill-opacity:1;fill-rule:nonzero;stroke:none"
         id="path3071" /><path
         d="m 460,460 -4.902,0 c 0.789,6.313 1.488,12.852 2.093,19.594 12.473,-0.805 18.125,-3.035 20.688,-8.571 C 474.59,464.484 467.816,460 460,460"
         style="fill:#883840;fill-opacity:1;fill-rule:nonzero;stroke:none"
         id="path3073" /><path
         d="m 477.879,471.023 c -2.563,5.536 -8.215,7.766 -20.688,8.571 0.594,6.594 1.094,13.394 1.5,20.406 l 1.309,0 c 11.047,0 20,-8.953 20,-20 0,-3.227 -0.766,-6.277 -2.121,-8.977"
         style="fill:#b77744;fill-opacity:1;fill-rule:nonzero;stroke:none"
         id="path3075" /><path
         d="M 184.902,460 180,460 c -7.816,0 -14.59,4.484 -17.879,11.023 2.563,5.536 8.215,7.766 20.688,8.571 0.601,-6.742 1.304,-13.281 2.093,-19.594"
         style="fill:#883840;fill-opacity:1;fill-rule:nonzero;stroke:none"
         id="path3077" /><path
         d="m 162.121,471.023 c -1.355,2.7 -2.121,5.75 -2.121,8.977 0,11.047 8.953,20 20,20 l 1.309,0 c 0.406,-7.012 0.906,-13.812 1.5,-20.406 -12.473,-0.805 -18.125,-3.035 -20.688,-8.571"
         style="fill:#b77744;fill-opacity:1;fill-rule:nonzero;stroke:none"
         id="path3079" /><path
         d="m 455.098,460 -270.196,0 c -0.789,6.313 -1.492,12.852 -2.093,19.594 -0.594,6.594 -1.094,13.394 -1.5,20.406 l 277.382,0 c -0.406,-7.012 -0.906,-13.812 -1.5,-20.406 -0.605,-6.742 -1.304,-13.281 -2.093,-19.594"
         style="fill:#c7a85f;fill-opacity:1;fill-rule:nonzero;stroke:none"
         id="path3081" /><path
         d="m 480,500 c 0,-11.047 -8.953,-20 -20,-20 l -280,0 c -11.047,0 -20,8.953 -20,20 0,11.047 8.953,20 20,20 l 280,0 c 11.047,0 20,-8.953 20,-20"
         style="fill:#f3cc70;fill-opacity:1;fill-rule:nonzero;stroke:none"
         id="path3083" /></g></g></svg>