<?xml version="1.0" encoding="UTF-8" standalone="no"?>
<!-- Created with Inkscape (http://www.inkscape.org/) -->

<svg
   xmlns:dc="http://purl.org/dc/elements/1.1/"
   xmlns:cc="http://creativecommons.org/ns#"
   xmlns:rdf="http://www.w3.org/1999/02/22-rdf-syntax-ns#"
   xmlns:svg="http://www.w3.org/2000/svg"
   xmlns="http://www.w3.org/2000/svg"
   xmlns:sodipodi="http://sodipodi.sourceforge.net/DTD/sodipodi-0.dtd"
   xmlns:inkscape="http://www.inkscape.org/namespaces/inkscape"
   width="80"
   height="80"
   id="svg2"
   version="1.1"
   inkscape:version="0.48.2 r9819"
   sodipodi:docname="Neues Dokument 1">
  <defs
     id="defs4" />
  <sodipodi:namedview
     id="base"
     pagecolor="#ffffff"
     bordercolor="#666666"
     borderopacity="1.0"
     inkscape:pageopacity="0.0"
     inkscape:pageshadow="2"
     inkscape:zoom="0.35"
     inkscape:cx="18.57142"
     inkscape:cy="25.714287"
     inkscape:document-units="px"
     inkscape:current-layer="layer1"
     showgrid="false"
     fit-margin-top="0"
     fit-margin-left="0"
     fit-margin-right="0"
     fit-margin-bottom="0"
     inkscape:window-width="1366"
     inkscape:window-height="746"
     inkscape:window-x="-8"
     inkscape:window-y="-8"
     inkscape:window-maximized="1" />
  <metadata
     id="metadata7">
    <rdf:RDF>
      <cc:Work
         rdf:about="">
        <dc:format>image/svg+xml</dc:format>
        <dc:type
           rdf:resource="http://purl.org/dc/dcmitype/StillImage" />
        <dc:title></dc:title>
      </cc:Work>
    </rdf:RDF>
  </metadata>
  <g
     inkscape:label="Ebene 1"
     inkscape:groupmode="layer"
     id="layer1"
     transform="translate(-331.42858,-478.07647)">
    <g
       transform="matrix(1.25,0,0,-1.25,331.42858,558.07647)"
       inkscape:label="ink_ext_XXXXXX"
       id="g2993">
      <g
         transform="scale(0.1,0.1)"
         id="g2995">
        <path
           id="path2997"
           style="fill:#c84755;fill-opacity:1;fill-rule:nonzero;stroke:none"
           d="M 640,320 C 640,143.27 496.73,0 320,0 143.27,0 0,143.27 0,320 0,496.73 143.27,640 320,640 496.73,640 640,496.73 640,320"
           inkscape:connector-curvature="0" />
        <path
           id="path2999"
           style="fill:#e1e3cc;fill-opacity:1;fill-rule:nonzero;stroke:none"
           d="m 240,240 c 0,5.5 6.438,4.938 11.199,7.688 l 60.141,34.722 c 4.762,2.75 12.558,2.75 17.32,0 l 60.141,-34.722 C 393.563,244.938 400,245.5 400,240 l 0,-74.059 c 0,-5.5 -6.437,-14.945 -11.199,-17.695 L 328.66,113.523 c -4.762,-2.75 -12.558,-2.75 -17.32,0 l -60.141,34.723 C 246.438,150.996 240,160.441 240,165.941 L 240,240"
           inkscape:connector-curvature="0" />
        <path
           id="path3001"
           style="fill:#f3cc70;fill-opacity:1;fill-rule:nonzero;stroke:none"
           d="m 320,190 c -93.738,0 -170,76.262 -170,170 0,93.738 76.262,170 170,170 93.738,0 170,-76.262 170,-170 0,-93.738 -76.262,-170 -170,-170"
           inkscape:connector-curvature="0" />
        <path
           id="path3003"
           style="fill:#c84755;fill-opacity:1;fill-rule:nonzero;stroke:none"
           d="m 320,540 c -99.254,0 -180,-80.746 -180,-180 0,-99.254 80.746,-180 180,-180 99.254,0 180,80.746 180,180 0,99.254 -80.746,180 -180,180 m 0,-20 c 88.367,0 160,-71.633 160,-160 0,-88.367 -71.633,-160 -160,-160 -88.367,0 -160,71.633 -160,160 0,88.367 71.633,160 160,160"
           inkscape:connector-curvature="0" />
        <path
           id="path3005"
           style="fill:#a43f4a;fill-opacity:1;fill-rule:nonzero;stroke:none"
           d="m 320,91.4648 c -3.141,0 -6.277,0.6836 -8.66,2.0586 L 251.199,128.246 C 246.438,130.996 240,140.441 240,145.941 l 0,20 c 0,-5.5 6.438,-14.945 11.199,-17.695 l 60.141,-34.723 c 2.383,-1.375 5.519,-2.062 8.66,-2.062 3.141,0 6.277,0.687 8.66,2.062 l 60.141,34.723 c 4.762,2.75 11.199,12.195 11.199,17.695 l 0,0 0,0 0,-20 c 0,-5.5 -6.437,-14.945 -11.199,-17.695 L 328.66,93.5234 c -2.383,-1.375 -5.519,-2.0586 -8.66,-2.0586"
           inkscape:connector-curvature="0" />
        <path
           id="path3007"
           style="fill:#b7b7a7;fill-opacity:1;fill-rule:nonzero;stroke:none"
           d="m 320,111.461 c -3.141,0 -6.277,0.687 -8.66,2.062 l -60.141,34.723 C 246.438,150.996 240,160.441 240,165.941 l 0,13.051 0,-13.051 c 0,-5.5 6.438,-14.945 11.199,-17.695 l 60.141,-34.723 c 2.383,-1.375 5.519,-2.058 8.66,-2.058 3.141,0 6.277,0.683 8.66,2.058 l 60.141,34.723 c 4.762,2.75 11.199,12.195 11.199,17.695 l 0,0 c 0,-5.5 -6.437,-14.945 -11.199,-17.695 L 328.66,113.523 c -2.383,-1.375 -5.519,-2.062 -8.66,-2.062"
           inkscape:connector-curvature="0" />
        <path
           id="path3009"
           style="fill:#e1e3cc;fill-opacity:1;fill-rule:nonzero;stroke:none"
           d="m 240,239.496 0,-73.555 c 0,-5.5 6.438,-14.945 11.199,-17.695 l 60.141,-34.723 c 4.762,-2.75 12.558,-2.75 17.32,0 l 60.141,34.723 c 4.762,2.75 11.199,12.195 11.199,17.695 l 0,73.555 c -24.137,-12.043 -51.242,-18.992 -80,-18.992 -28.758,0 -55.863,6.949 -80,18.992"
           inkscape:connector-curvature="0" />
        <path
           id="path3011"
           style="fill:#c7a85f;fill-opacity:1;fill-rule:nonzero;stroke:none"
           d="m 320,220.504 c -28.758,0 -55.863,6.949 -80,18.992 l 0,-18.09 C 194.887,247.5 163.699,294.988 160.309,350 165.473,433.703 234.996,500 320,500 405.004,500 474.527,433.703 479.691,350 476.301,294.988 445.113,247.5 400,221.406 l 0,18.09 c -24.137,-12.043 -51.242,-18.992 -80,-18.992"
           inkscape:connector-curvature="0" />
        <path
           id="path3013"
           style="fill:#a43f4a;fill-opacity:1;fill-rule:nonzero;stroke:none"
           d="m 400,201.406 0,20 C 445.113,247.5 476.301,294.988 479.691,350 479.898,346.691 480,343.359 480,340 480,280.773 447.828,229.07 400,201.406 m -160,0 C 192.172,229.07 160,280.773 160,340 c 0,3.359 0.102,6.691 0.309,10 3.39,-55.012 34.578,-102.5 79.691,-128.594 l 0,-20"
           inkscape:connector-curvature="0" />
        <path
           id="path3015"
           style="fill:#b7b7a7;fill-opacity:1;fill-rule:nonzero;stroke:none"
           d="m 320,180 c -29.141,0 -56.469,7.793 -80,21.406 l 0,38.09 c 24.137,-12.043 51.242,-18.992 80,-18.992 28.758,0 55.863,6.949 80,18.992 l 0,-38.09 C 376.469,187.793 349.141,180 320,180"
           inkscape:connector-curvature="0" />
        <path
           id="path3017"
           style="fill:#f3cc70;fill-opacity:1;fill-rule:nonzero;stroke:none"
           d="m 320,520 c -88.363,0 -160,-71.637 -160,-160 0,-88.363 71.637,-160 160,-160 88.363,0 160,71.637 160,160 0,88.363 -71.637,160 -160,160"
           inkscape:connector-curvature="0" />
        <path
           id="path3019"
           style="fill:#ffffff;fill-opacity:1;fill-rule:nonzero;stroke:none"
           d="m 271.875,415 c -16.051,0 -25.98,-14.105 -25.98,-27.18 0,-6.465 2.308,-15.886 13.289,-24.054 7.519,-5.59 21.363,-12.121 45.816,-13.672 l 0,9.906 c 0.438,9.426 -1.09,34.641 -13.031,47.172 -5.09,5.344 -11.477,7.828 -20.094,7.828 z M 320,224.496 c -8.285,0 -15,6.715 -15,15 l 0,80.543 c -26.664,1.422 -48.062,8.012 -63.715,19.652 -16.375,12.172 -25.39,29.27 -25.39,48.129 0,31.532 25.113,57.18 55.98,57.18 16.73,0 31.227,-5.961 41.914,-17.242 22.871,-24.129 21.43,-64.086 21.191,-68.559 L 335,239.496 c 0,-8.285 -6.715,-15 -15,-15"
           inkscape:connector-curvature="0" />
        <path
           id="path3021"
           style="fill:#ffffff;fill-opacity:1;fill-rule:nonzero;stroke:none"
           d="m 368.184,415 c -8.649,0 -15.047,-2.504 -20.141,-7.883 -11.965,-12.621 -13.434,-38.308 -13.004,-46.316 l 0,-10.711 c 24.469,1.555 38.316,8.086 45.836,13.676 10.98,8.168 13.289,17.589 13.289,24.054 0,13.075 -9.93,27.18 -25.98,27.18 z M 320.059,224.496 c -8.286,0 -15,6.715 -15,15 l 0,120.504 c -0.219,3.672 -1.661,43.629 21.211,67.758 10.687,11.281 25.183,17.242 41.914,17.242 30.871,0 55.98,-25.648 55.98,-57.18 0,-18.859 -9.019,-35.957 -25.391,-48.129 -15.66,-11.644 -37.058,-18.238 -63.73,-19.652 l 0.016,-80.543 c 0,-8.285 -6.715,-15 -15,-15"
           inkscape:connector-curvature="0" />
      </g>
    </g>
  </g>
</svg>
