<?xml version="1.0" encoding="UTF-8" standalone="no"?>
<!-- Created with Inkscape (http://www.inkscape.org/) -->

<svg
   xmlns:dc="http://purl.org/dc/elements/1.1/"
   xmlns:cc="http://creativecommons.org/ns#"
   xmlns:rdf="http://www.w3.org/1999/02/22-rdf-syntax-ns#"
   xmlns:svg="http://www.w3.org/2000/svg"
   xmlns="http://www.w3.org/2000/svg"
   xmlns:sodipodi="http://sodipodi.sourceforge.net/DTD/sodipodi-0.dtd"
   xmlns:inkscape="http://www.inkscape.org/namespaces/inkscape"
   id="svg2985"
   version="1.1"
   inkscape:version="0.48.2 r9819"
   width="80"
   height="80"
   xml:space="preserve"
   sodipodi:docname="bookshelf.eps"><metadata
     id="metadata2991"><rdf:RDF><cc:Work
         rdf:about=""><dc:format>image/svg+xml</dc:format><dc:type
           rdf:resource="http://purl.org/dc/dcmitype/StillImage" /><dc:title></dc:title></cc:Work></rdf:RDF></metadata><defs
     id="defs2989" /><sodipodi:namedview
     pagecolor="#ffffff"
     bordercolor="#666666"
     borderopacity="1"
     objecttolerance="10"
     gridtolerance="10"
     guidetolerance="10"
     inkscape:pageopacity="0"
     inkscape:pageshadow="2"
     inkscape:window-width="1366"
     inkscape:window-height="706"
     id="namedview2987"
     showgrid="false"
     inkscape:zoom="6.4625"
     inkscape:cx="40"
     inkscape:cy="40"
     inkscape:window-x="-8"
     inkscape:window-y="-8"
     inkscape:window-maximized="1"
     inkscape:current-layer="g2993" /><g
     id="g2993"
     inkscape:groupmode="layer"
     inkscape:label="ink_ext_XXXXXX"
     transform="matrix(1.25,0,0,-1.25,0,80)"><g
       id="g2995"
       transform="scale(0.1,0.1)"><path
         d="M 638.332,320 C 638.332,143.27 495.063,0 318.332,0 141.602,0 -1.66797,143.27 -1.66797,320 c 0,176.73 143.26997,320 319.99997,320 176.731,0 320,-143.27 320,-320"
         style="fill:#7db6d8;fill-opacity:1;fill-rule:nonzero;stroke:none"
         id="path2997" /><path
         d="m 500,140 -360,0 c -11.047,0 -20,8.953 -20,20 0,3.645 0.973,7.059 2.676,10 3.457,-5.977 9.922,-10 17.324,-10 l 360,0 c 7.402,0 13.867,4.023 17.324,10 1.703,-2.941 2.676,-6.355 2.676,-10 0,-11.047 -8.953,-20 -20,-20"
         style="fill:#6594b2;fill-opacity:1;fill-rule:nonzero;stroke:none"
         id="path2999" /><path
         d="m 520,180 c 0,-11.047 -8.953,-20 -20,-20 l -360,0 c -11.047,0 -20,8.953 -20,20 0,11.047 8.953,20 20,20 l 360,0 c 11.047,0 20,-8.953 20,-20"
         style="fill:#e08e4c;fill-opacity:1;fill-rule:nonzero;stroke:none"
         id="path3001" /><path
         d="m 230,440 -40,0 c -16.57,0 -30,-13.43 -30,-30 l 0,-210 100,0 0,210 c 0,16.57 -13.43,30 -30,30"
         style="fill:#c84755;fill-opacity:1;fill-rule:nonzero;stroke:none"
         id="path3003" /><path
         d="m 450,480 -40,0 c -16.57,0 -30,-13.43 -30,-30 l 0,-250 100,0 0,250 c 0,16.57 -13.43,30 -30,30"
         style="fill:#e1e3cc;fill-opacity:1;fill-rule:nonzero;stroke:none"
         id="path3005" /><path
         d="m 160,370 100,0 0,30 -100,0 0,-30 z"
         style="fill:#e08e4c;fill-opacity:1;fill-rule:nonzero;stroke:none"
         id="path3007" /><path
         d="m 160,240 100,0 0,30 -100,0 0,-30 z"
         style="fill:#e08e4c;fill-opacity:1;fill-rule:nonzero;stroke:none"
         id="path3009" /><path
         d="m 380,240 100,0 0,30 -100,0 0,-30 z"
         style="fill:#ffffff;fill-opacity:1;fill-rule:nonzero;stroke:none"
         id="path3011" /><path
         d="m 380,410 100,0 0,30 -100,0 0,-30 z"
         style="fill:#ffffff;fill-opacity:1;fill-rule:nonzero;stroke:none"
         id="path3013" /><path
         d="m 400,200 -20,0 0,40 20,0 0,-40 m 0,70 -20,0 0,140 20,0 0,-140"
         style="fill:#b7b7a7;fill-opacity:1;fill-rule:nonzero;stroke:none"
         id="path3015" /><path
         d="m 380,240 20,0 0,30 -20,0 0,-30 z"
         style="fill:#d4d3d1;fill-opacity:1;fill-rule:nonzero;stroke:none"
         id="path3017" /><path
         d="m 380,450 c 0,0.016 0,0.031 0,0.043 0,-0.012 0,-0.027 0,-0.043 m 0,0.059 c 0,0.007 0,0.019 0,0.031 0,-0.012 0,-0.02 0,-0.031 m 0,0.046 c 0,0.008 0,0.016 0,0.028 0,-0.008 0,-0.02 0,-0.028 m 0,0.047 c 0,0.008 0,0.016 0,0.028 0,-0.012 0,-0.02 0,-0.028 m 0,0.067 c 0,0.004 0,0.008 0,0.011 0,-0.003 0,-0.007 0,-0.011 m 0,0.043 c 0,0.004 0,0.008 0,0.008 0,-0.004 0,-0.004 0,-0.008"
         style="fill:#6594b2;fill-opacity:1;fill-rule:nonzero;stroke:none"
         id="path3019" /><path
         d="m 400,440 -20,0 0,10 c 0,0.016 0,0.031 0,0.043 0,0.008 0,0.012 0,0.016 0,0.011 0,0.019 0,0.031 0,0.004 0,0.012 0,0.015 0,0.008 0,0.02 0,0.028 0,0.004 0,0.012 0,0.019 0,0.008 0,0.016 0,0.028 0,0.011 0,0.023 0,0.039 0,0.004 0,0.008 0,0.011 0,0.012 0,0.02 0,0.032 0,0.004 0,0.004 0,0.008 0.117,12.925 8.457,23.789 20,27.894 L 400,440"
         style="fill:#b7b7a7;fill-opacity:1;fill-rule:nonzero;stroke:none"
         id="path3021" /><path
         d="m 380,410 20,0 0,30 -20,0 0,-30 z"
         style="fill:#d4d3d1;fill-opacity:1;fill-rule:nonzero;stroke:none"
         id="path3023" /><path
         d="m 260,410 c 0,0.016 0,0.031 0,0.043 0,-0.012 0,-0.027 0,-0.043 m 0,0.059 c 0,0.011 0,0.019 0,0.031 0,-0.012 0,-0.024 0,-0.031 m 0,0.046 c 0,0.008 0,0.016 0,0.028 0,-0.008 0,-0.02 0,-0.028 m 0,0.043 c 0,0.008 0,0.02 0,0.028 0,-0.008 0,-0.02 0,-0.028 m 0,0.071 c 0,0.004 0,0.008 0,0.011 0,-0.003 0,-0.007 0,-0.011 m 0,0.043 c 0,0.004 0,0.008 0,0.008 0,0 0,-0.004 0,-0.008"
         style="fill:#6594b2;fill-opacity:1;fill-rule:nonzero;stroke:none"
         id="path3025" /><path
         d="m 260,200 -20,0 0,40 20,0 0,-40 m 0,70 -20,0 0,100 20,0 0,-100 m 0,130 -20,0 0,38.164 c 11.543,-4.105 19.883,-14.969 20,-27.894 0,0 0,-0.004 0,-0.008 0,-0.008 0,-0.02 0,-0.032 0,-0.003 0,-0.007 0,-0.011 0,-0.016 0,-0.028 0,-0.043 0,-0.008 0,-0.02 0,-0.028 0,-0.003 0,-0.007 0,-0.015 0,-0.012 0,-0.02 0,-0.028 0,-0.003 0,-0.011 0,-0.015 0,-0.012 0,-0.02 0,-0.031 0,-0.004 0,-0.008 0,-0.016 0,-0.012 0,-0.027 0,-0.043 l 0,-10"
         style="fill:#a43f4a;fill-opacity:1;fill-rule:nonzero;stroke:none"
         id="path3027" /><path
         d="m 260,370 -20,0 0,30 20,0 0,-30"
         style="fill:#b77744;fill-opacity:1;fill-rule:nonzero;stroke:none"
         id="path3029" /><path
         d="m 260,240 -20,0 0,30 20,0 0,-30"
         style="fill:#b77744;fill-opacity:1;fill-rule:nonzero;stroke:none"
         id="path3031" /><path
         d="m 350,520 -60,0 c -16.57,0 -30,-13.43 -30,-30 l 0,-290 120,0 0,290 c 0,16.57 -13.43,30 -30,30"
         style="fill:#495672;fill-opacity:1;fill-rule:nonzero;stroke:none"
         id="path3033" /><path
         d="m 260,450 120,0 0,30 -120,0 0,-30 z"
         style="fill:#77caa9;fill-opacity:1;fill-rule:nonzero;stroke:none"
         id="path3035" /><path
         d="m 260,240 120,0 0,30 -120,0 0,-30 z"
         style="fill:#77caa9;fill-opacity:1;fill-rule:nonzero;stroke:none"
         id="path3037" /></g></g></svg>